<svg xmlns="http://www.w3.org/2000/svg" viewBox="0 0 800 520" role="img" aria-labelledby="title"><title id="title">Postre de cacao y frutos peruanos</title><defs><linearGradient id="b" x2="1" y2="1"><stop stop-color="#b9977a"/><stop offset="1" stop-color="#ead7a5"/></linearGradient><filter id="s"><feDropShadow dy="18" stdDeviation="14" flood-opacity=".28"/></filter></defs><rect width="800" height="520" fill="url(#b)"/><ellipse cx="405" cy="393" rx="230" ry="70" fill="#f5eddf" filter="url(#s)"/><path d="M275 345h260l-38-202H315z" fill="#5b312b"/><path d="M315 143h182c6 0 12 5 13 12l6 30H296l6-30c1-7 7-12 13-12z" fill="#e7c59d"/><path d="M298 198h215l-8 45H306z" fill="#a75d50"/><g fill="#e6a83d"><circle cx="365" cy="132" r="32"/><circle cx="435" cy="126" r="27"/><circle cx="405" cy="82" r="20"/></g><g fill="#6d8b48"><ellipse cx="342" cy="87" rx="45" ry="14" transform="rotate(-27 342 87)"/><ellipse cx="468" cy="76" rx="43" ry="13" transform="rotate(23 468 76)"/></g></svg>
